<svg id="Layer_1" data-name="Layer 1" xmlns="http://www.w3.org/2000/svg" viewBox="0 0 492.64 110.15"><defs><style>.cls-1,.cls-2{fill:#fff;}.cls-1{fill-rule:evenodd;}</style></defs><title>logo</title><path class="cls-1" d="M186.67,43.35a16,16,0,0,0-4.25-.61,11.56,11.56,0,0,0-8.65,3.77,2.13,2.13,0,0,1-.26.21c-3.13-2.73-6.14-4-9-4-3.64,0-7.14,2-10.56,5.69V43.63a.67.67,0,0,0-.67-.67H141.39a.67.67,0,0,0-.67.67V78.72a.56.56,0,0,0,.56.56h13.4a.55.55,0,0,0,.55-.55c0-3.3.06-20.33.19-20.8a2.17,2.17,0,0,1,2.28-1.76h0a2.17,2.17,0,0,1,2.3,1.72,6.6,6.6,0,0,1,.21,1.77c0,6.15,0,16.57,0,19.08a.56.56,0,0,0,.56.55h13.33a.56.56,0,0,0,.56-.55c0-2.55,0-13.19,0-18.89a8,8,0,0,1,.16-1.89,2.23,2.23,0,0,1,2.27-1.79h.05A2.2,2.2,0,0,1,179.52,58a7.85,7.85,0,0,1,.2,1.88c0,6.11,0,16.4,0,18.9a.56.56,0,0,0,.56.55h13.42a.56.56,0,0,0,.56-.55c0-3.72.16-25.14,0-26.14C193.53,48.18,191.28,44.61,186.67,43.35Z"/><path class="cls-1" d="M119,50.5c-.68-3.19-2.26-5.81-5.55-6.92a13.65,13.65,0,0,0-4.36-.71,11.68,11.68,0,0,0-9.22,4.18c-.22.26-.47.5-.93,1V43.63a.68.68,0,0,0-.68-.67H86.28a.67.67,0,0,0-.67.67V78.74a.56.56,0,0,0,.56.55H99.54a.56.56,0,0,0,.56-.55c0-2.55,0-13.21,0-18.91a8.08,8.08,0,0,1,.13-1.78,2.26,2.26,0,0,1,2.32-1.88h0A2.2,2.2,0,0,1,104.93,58a7.37,7.37,0,0,1,.2,1.88c0,6.11,0,16.39,0,18.88a.56.56,0,0,0,.56.55H119a.55.55,0,0,0,.56-.55c0-2.83.06-15.76,0-22.79A27,27,0,0,0,119,50.5Z"/><path class="cls-1" d="M136.56,43H123.45a.67.67,0,0,0-.67.67V78.72a.56.56,0,0,0,.56.56h13.39a.56.56,0,0,0,.56-.55c0-4.11,0-30.55-.06-35.11A.66.66,0,0,0,136.56,43Z"/><path class="cls-1" d="M55.08,41.71c-2.56.43-3.59-.67-4.81-1.51-10.12-6.88-22.88-3-28,9.11C27.71,45.42,35,51.4,38.05,52.74c10.94,4.83,13-1,20.7-1.83.48,0,1-.08,1.45-.1s1,0,1.54,0l0,0a27.81,27.81,0,0,1,3,.2c3,.35,4.56,2.75,3.58,5.76l-1.07-.59a15.6,15.6,0,0,0-7.48-2,16.7,16.7,0,0,0-5.11.83c-5.84,1.87-9.08,7.61-8,13.85.94,5.37,3.91,9,9.26,10.34a13.34,13.34,0,0,0,3.27.42A13.9,13.9,0,0,0,67.1,77c.67-.45,1.31-.93,2.21-1.57v3.29a.56.56,0,0,0,.55.56H82.45a.56.56,0,0,0,.56-.55c0-3.43-.18-22-.18-27.2C82.83,43.24,69.78,37.29,55.08,41.71Zm10,28h-.07a3.3,3.3,0,0,1-3.42-3.52A3.25,3.25,0,0,1,65,62.72h.08a3.25,3.25,0,0,1,3.49,3.41A3.46,3.46,0,0,1,65.13,69.75Z"/><path class="cls-1" d="M261,42.92V41.23a.67.67,0,0,0-.67-.67h-13a.67.67,0,0,0-.67.67V56c-5.36-.17-11.23,2.12-17.29,6.79C239.59,60.93,243.67,66.09,245,67a8.24,8.24,0,0,0,1.71,1V88.38a.67.67,0,0,0,.67.68h14.08a.67.67,0,0,0,.67-.68V78.22a10.06,10.06,0,0,0,2,1,15.26,15.26,0,0,0,5.47,1A16.34,16.34,0,0,0,282.36,74a23.19,23.19,0,0,0,5.1-14.87,17.77,17.77,0,0,0-5.38-13C276.73,40.8,268.59,38.54,261,42.92Zm9.24,20.65a4.81,4.81,0,0,1-3.62,1.62A5.15,5.15,0,0,1,263,63.77a4.65,4.65,0,0,1-1.53-3.53,5.92,5.92,0,0,1,1.41-3.92,4.3,4.3,0,0,1,3.45-1.69,5.53,5.53,0,0,1,3.85,1.47,4.78,4.78,0,0,1,1.62,3.67A5.36,5.36,0,0,1,270.23,63.57Z"/><path class="cls-1" d="M308.28,40.56a18.25,18.25,0,0,0-13.9,6.17,20.87,20.87,0,0,0-5.71,14.65A16.93,16.93,0,0,0,295.34,75a22.69,22.69,0,0,0,14.89,5.2,18,18,0,0,0,13.61-5.78,19.38,19.38,0,0,0,5.52-13.88,18.93,18.93,0,0,0-5.92-14.29Q317.52,40.57,308.28,40.56Zm4.4,23.73A4.82,4.82,0,0,1,309,66a4.91,4.91,0,0,1-3.67-1.59,5.23,5.23,0,0,1-1.52-3.72,5.78,5.78,0,0,1,1.47-3.9,4.65,4.65,0,0,1,3.62-1.69,5.36,5.36,0,0,1,3.76,1.5,4.73,4.73,0,0,1,1.62,3.61A5.84,5.84,0,0,1,312.68,64.29Z"/><path class="cls-1" d="M354.23,64.64a6.09,6.09,0,0,1-3.28.91,5.11,5.11,0,0,1-3.69-1.5,4.84,4.84,0,0,1-1.55-3.6,6.17,6.17,0,0,1,1.52-4.14A4.85,4.85,0,0,1,351,54.55a5.84,5.84,0,0,1,3.29,1.1,10.71,10.71,0,0,1,1.19,1L364,45.61c-.54-.45-1.07-.89-1.57-1.34a20.11,20.11,0,0,0-4.71-2.42A22.41,22.41,0,0,0,350,40.56a18.68,18.68,0,0,0-14.13,5.95,19.21,19.21,0,0,0-5.47,13.71,20.11,20.11,0,0,0,3.16,11.56,19.17,19.17,0,0,0,8.7,6.67c1.19,3.14-4.19,8.4-8.58,7.13,7,6.75,17.32,2.82,20-5.47l.37,0a8.76,8.76,0,0,0,2.05-.46,21.73,21.73,0,0,0,5.8-3,19.66,19.66,0,0,0,2.14-1.77l-8.71-11.18A5.89,5.89,0,0,1,354.23,64.64Z"/><path class="cls-1" d="M381.48,40.56a18.21,18.21,0,0,0-13.89,6.17,20.83,20.83,0,0,0-5.72,14.65A16.93,16.93,0,0,0,368.54,75a22.71,22.71,0,0,0,14.89,5.2A18,18,0,0,0,397,74.39a19.39,19.39,0,0,0,5.53-13.88,18.94,18.94,0,0,0-5.93-14.29Q390.72,40.57,381.48,40.56Zm4.4,23.73A4.82,4.82,0,0,1,382.15,66a4.91,4.91,0,0,1-3.67-1.59A5.23,5.23,0,0,1,377,60.7a5.74,5.74,0,0,1,1.48-3.9,4.63,4.63,0,0,1,3.61-1.69,5.36,5.36,0,0,1,3.76,1.5,4.73,4.73,0,0,1,1.62,3.61A5.84,5.84,0,0,1,385.88,64.29Z"/><path class="cls-1" d="M218.69,67.33a5,5,0,0,1-2.86-.85c6.34-4.85,12.64-9.69,19-14.54a5.58,5.58,0,0,0-.25-.57c-3.94-6.94-9.66-10.81-17.72-10.81h-.63c-11.15.27-18.95,7.82-19.69,17.76C195.75,68.48,201,76.25,209.6,79a24.29,24.29,0,0,0,7.51,1.15,32.27,32.27,0,0,0,7.64-1,25.37,25.37,0,0,0,9.33-4.56l-6.25-10.75C223.66,66.22,220.84,67.33,218.69,67.33Zm-6.14-14.65a6.14,6.14,0,0,1,3.6-1.14,6,6,0,0,1,4.23,1.68l-9.54,7.23A6.32,6.32,0,0,1,212.55,52.68Z"/><path class="cls-1" d="M469.78,56.43a22.65,22.65,0,0,0-2.58-.94c-3.08-1-6.26-2.23-8.64-4.39s.69-1.37-1.26-4.94A16.93,16.93,0,0,0,451.68,40c-4-3.73-18.4-6.32-19.35-18.85-4.17,5.4-3.94,9.7-2.61,12.3-5.26-2.75-9.49-7.27-12.88-10.66-.43,7.89,1.49,12.34,1.49,12.34C415.15,32.69,406,29,396,33.47c7.76,2.86,10.62,5.72,12.17,8.08a12.6,12.6,0,0,0-2.34,2.09A10.84,10.84,0,0,0,403.2,51a12.23,12.23,0,0,0,1.44,6.08,11.42,11.42,0,0,0,3.79,4,18.31,18.31,0,0,0,4.23,1.91c2.42.77,3.64,1.47,3.64,2.11a3.26,3.26,0,0,1-.1.55,2,2,0,0,1-1.52,1.31,10.59,10.59,0,0,1-3.17.4h-.77a6.93,6.93,0,0,1-.77-.05,19.38,19.38,0,0,1-4.93-1.1,15.11,15.11,0,0,1-1.6-.7V78.52a11,11,0,0,0,1.25.35,23.36,23.36,0,0,0,3.19.6c.36,0,1.34.16,2.94.38a33,33,0,0,0,4.53.32,31.34,31.34,0,0,0,4.06-.27,22.55,22.55,0,0,0,3.91-.88,15.8,15.8,0,0,0,6.13-3.57,10.15,10.15,0,0,0,2.88-7.08c.53-10-7.84-11.45-11.27-13.09-1-.43-2.28-3.39,5-2.59.7,1.7,1.88,3.59,5.67,5.38-1.36-4.37,1.93-5.87,4.22-5.91a4,4,0,0,0,.93,7.16c14.7,6.18,10.79,7.73,12.83,8.22,5.22,1.24,10.83-2.48,11-2.63-.73,0-9.16.35-9.42-2.5-.21-2.26-2.63-2.93-5.86-3.85s-5.06-3.07-4.67-7.93c.6,3.07,2.39,6.15,7.88,6.52,3.09.21,7.45.83,6.93,4.39,0-.24,4.82-2.73,7.64-.67,3.4,2.48.24,5,0,5.05C470.86,64,471,57,469.78,56.43Zm-22.47-8.89c-.66-1.5.54-3-1.41-4.23,0,0,2.4.11,4.57,3.18.89,1.27,1.2,3.1,2.87,4.53C451.2,50.5,448,49.17,447.31,47.54Z"/><path class="cls-1" d="M35.74,56.4c-4.64-3-10,.24-12.66,2.79a17.56,17.56,0,0,0,6.46,4.66c7.36,3,14.34-3.42,16.9-6.29C43.33,58.82,40,59.09,35.74,56.4Z"/><rect class="cls-2" x="122.78" y="33.35" width="14.51" height="7.68" rx="0.3"/></svg>