<?xml version="1.0" encoding="utf-8"?>
<!-- Generator: Adobe Illustrator 21.0.0, SVG Export Plug-In . SVG Version: 6.00 Build 0)  -->
<svg version="1.1" id="Layer_1" xmlns="http://www.w3.org/2000/svg" xmlns:xlink="http://www.w3.org/1999/xlink" x="0px" y="0px"
	 viewBox="0 0 891 65" style="enable-background:new 0 0 891 65;" xml:space="preserve" preserveAspectRatio="none">
<style type="text/css">
	.st0{opacity:0.6;clip-path:url(#SVGID_4_);fill:#FFFFFF;}
	.st1{clip-path:url(#SVGID_4_);fill:#FFFFFF;}
	.st2{clip-path:url(#SVGID_4_);fill:url(#SVGID_5_);}
	.st3{opacity:0.3;clip-path:url(#SVGID_4_);fill:#FFFFFF;}
	.st4{opacity:0.3;clip-path:url(#SVGID_4_);fill:url(#SVGID_6_);}
	.st5{clip-path:url(#SVGID_4_);fill:url(#SVGID_7_);}
	.st6{fill-rule:evenodd;clip-rule:evenodd;fill:url(#SVGID_8_);}
	.st7{fill-rule:evenodd;clip-rule:evenodd;fill:url(#SVGID_9_);}
	.st8{fill-rule:evenodd;clip-rule:evenodd;fill:url(#SVGID_10_);}
	.st9{fill-rule:evenodd;clip-rule:evenodd;fill:url(#SVGID_11_);}
	.st10{fill-rule:evenodd;clip-rule:evenodd;fill:url(#SVGID_12_);}
	.st11{fill-rule:evenodd;clip-rule:evenodd;fill:url(#SVGID_13_);}
	.st12{fill-rule:evenodd;clip-rule:evenodd;fill:url(#SVGID_14_);}
	.st13{fill-rule:evenodd;clip-rule:evenodd;fill:url(#SVGID_15_);}
	.st14{fill-rule:evenodd;clip-rule:evenodd;fill:url(#SVGID_16_);}
	.st15{fill-rule:evenodd;clip-rule:evenodd;fill:url(#SVGID_17_);}
	.st16{fill-rule:evenodd;clip-rule:evenodd;fill:url(#SVGID_18_);}
	.st17{fill-rule:evenodd;clip-rule:evenodd;fill:url(#SVGID_19_);}
	.st18{fill:#8E1CB0;}
	.st19{fill:#E5006E;}
	.st20{fill:#00CDDD;}
	.st21{fill:#93AF1E;}
	.st22{fill:#FF7300;}
	.st23{fill:#E5C400;}
	.st24{fill:url(#SVGID_20_);}
	.st25{fill:#FFFFFF;}
	.st26{opacity:0.6;}
	.st27{opacity:0.3;fill:#FFFFFF;}
</style>
<g>
	<path class="st25" d="M-44-139V20.1c22.7,8.9,51.2,17.8,44.9,15.8c31.4-10,63.9-23,122.2-29.4c83.4-9.2,123.3,6.5,173.8,19.4
		C337.1,15.6,380.5,6.7,434.3,7c44.1,0.2,87,6.2,128.6,13.4c0,0,0,0,0,0c34.2-7.1,66.7-12.2,119.1-7.1
		c73.6,7.1,76.6,23.8,127.1,30.9C839,39.1,868,28.7,896,10.5V-139H-44z"/>
</g>
<g class="st26">
	<path class="st25" d="M562.9,20.4c87.8,15.4,170,36.8,246.2,23.8c-50.5-7.1-53.5-23.8-127.1-30.9C629.7,8.3,597.1,13.4,562.9,20.4z
		"/>
	<path class="st25" d="M296.8,25.9C246.4,13,206.4-2.8,123.1,6.4C64.8,12.9,32.3,25.9,0.9,35.9C135.9,78,209.1,48.4,296.8,25.9z"/>
</g>
<path class="st27" d="M-82.3-15.3c-0.5,10.7-0.9,21.3-1.4,32c1.8,53,196.5,55.4,228,40.1c-40.7,1.8-86.6-3.2-143.5-20.9
	c31.4-10,63.9-23,122.2-29.4c83.4-9.2,123.3,6.5,173.8,19.4c-0.7,0.2-1.3,0.3-2,0.5c42.1,10.5,81.6,30,144.8,30.3
	c47.3,0.2,82.1-21.1,123.7-36.2c-0.1,0-0.3-0.1-0.4-0.1c0.5-0.1,1-0.2,1.5-0.3C592.2,10.1,623.2,3,663,7c12.7,1.3,23.4,4.1,32.8,7.9
	C756.2,22.7,767,37,809.1,44.2C824,48,896,64,930.6,0.7c2.6-3.6,5.2-7.1,7.7-10.7C598.1-11.8,257.9-13.6-82.3-15.3z"/>
<path class="st27" d="M936-26.5C590.7-12.8,243.3-21.7-102-8c14,9.6,39.7,56.3,71,61.9c29.9,5.4,53.3,0.8,75.7-6.4
	c-13.9-3-28.4-6.9-43.8-11.7c31.4-10,63.9-23,122.2-29.4c83.4-9.2,123.3,6.5,173.8,19.4c-25.8,6.6-50.3,13.8-75.5,19.7
	c10.3,5.1,23.3,9.9,44.7,12.7c72,9.5,90.8-22.4,168-31.4c114.7-13.4,125.5,51,227,31.4c17.6-3.4,31.9-8.2,44.2-13.4
	c-45.6-5.3-93.1-15.8-142.3-24.4c34.2-7.1,66.7-12.2,119.1-7.1c29.2,2.8,47.3,7.2,61.7,11.8C765.1,13.5,785,4.7,819,8.4
	c56.8,6.2,98.9,41.5,116,22.8C944.5,20.8,940.8-10,936-26.5z"/>
</svg>
